<?xml version="1.0" encoding="UTF-8" standalone="no"?>
<!-- Generator: Adobe Illustrator 18.1.1, SVG Export Plug-In . SVG Version: 6.00 Build 0)  -->

<svg
   version="1.1"
   x="0px"
   y="0px"
   viewBox="0 0 512 512"
   enable-background="new 0 0 512 512"
   xml:space="preserve"
   id="svg32"
   sodipodi:docname="ILCompose.svg"
   inkscape:export-filename="D:\Projects\ILCompose\Images\ILCompose.png"
   inkscape:export-xdpi="384"
   inkscape:export-ydpi="384"
   inkscape:version="1.1 (c68e22c387, 2021-05-23)"
   xmlns:inkscape="http://www.inkscape.org/namespaces/inkscape"
   xmlns:sodipodi="http://sodipodi.sourceforge.net/DTD/sodipodi-0.dtd"
   xmlns="http://www.w3.org/2000/svg"
   xmlns:svg="http://www.w3.org/2000/svg"><defs
   id="defs36">
	

	
</defs><sodipodi:namedview
   id="namedview34"
   pagecolor="#ffffff"
   bordercolor="#666666"
   borderopacity="1.0"
   inkscape:pageshadow="2"
   inkscape:pageopacity="0.0"
   inkscape:pagecheckerboard="0"
   showgrid="false"
   inkscape:zoom="0.85253906"
   inkscape:cx="-17.008018"
   inkscape:cy="120.2291"
   inkscape:window-width="2230"
   inkscape:window-height="1351"
   inkscape:window-x="4970"
   inkscape:window-y="1162"
   inkscape:window-maximized="0"
   inkscape:current-layer="svg32" />










<g
   id="g1273"
   transform="matrix(0.98061648,0,0,0.98061648,598.36303,-14.842309)"><g
     id="Layer_2"
     transform="matrix(0.88839406,0,0,0.88839406,-575.63272,0.64599306)">
	<path
   fill="#d32a2a"
   d="m 120.563,304.401 v 0.199 c -43.902,2.838 -78.638,39.325 -78.638,83.944 0,44.619 34.736,81.106 78.638,83.944 v 0.199 h 81.488 V 304.401 Z"
   id="path2" />
</g><g
     id="Layer_3"
     transform="matrix(0.88839406,0,0,0.88839406,-575.63272,0.64599306)">
	<path
   fill="#132028"
   d="m 57.041,173.52 v 0.155 c -30.374,2.207 -54.407,30.584 -54.407,65.286 0,34.702 24.032,63.078 54.407,65.286 v 0.155 H 113.42 V 173.52 Z"
   id="path5" />
</g><g
     id="Layer_4"
     transform="matrix(0.88839406,0,0,0.88839406,-575.63272,0.64599306)">
	<path
   fill="#005877"
   d="m 145.275,26.809 v 0.173 c -34.048,2.474 -60.987,34.283 -60.987,73.182 0,38.899 26.939,70.708 60.987,73.182 v 0.173 h 74.39 V 26.809 Z"
   id="path8" />
</g><g
     id="Layer_5"
     transform="matrix(0.88839406,0,0,0.88839406,-575.63272,0.64599306)">
	<path
   fill="#00b1ff"
   d="M 458.673,142.072 V 58.258 c 0,-4.396 3.564,-7.96 7.96,-7.96 h 16.712 c 4.396,0 7.96,-3.564 7.96,-7.96 v -7.57 c 0,-4.396 -3.564,-7.96 -7.96,-7.96 h -255.78 c -4.396,0 -7.96,3.564 -7.96,7.96 V 165.56 c 0,4.396 3.564,7.96 7.96,7.96 h 255.78 c 4.396,0 7.96,-3.564 7.96,-7.96 v -7.57 c 0,-4.396 -3.564,-7.96 -7.96,-7.96 h -16.712 c -4.396,0.001 -7.96,-3.562 -7.96,-7.958 z"
   id="path11" />
</g><g
     id="Layer_6"
     transform="matrix(0.88839406,0,0,0.88839406,-575.63272,0.64599306)">
	<path
   fill="#445056"
   d="m 417.803,197.862 h 50.514 c 5.975,0 10.819,-3.734 10.819,-8.341 v -7.661 c 0,-4.606 -4.844,-8.341 -10.819,-8.341 H 111.215 v 0.198 c -29.736,2.488 -53.188,30.736 -53.188,65.242 0,34.506 23.452,62.754 53.188,65.242 v 0.198 h 357.102 c 5.975,0 10.819,-3.734 10.819,-8.341 v -8.364 c 0,-4.606 -4.844,-8.341 -10.819,-8.341 h -50.514 c -5.975,0 -10.819,-3.734 -10.819,-8.341 V 206.2 c 0,-4.604 4.844,-8.338 10.819,-8.338 z"
   id="path14" />
</g><g
     id="Layer_7"
     transform="matrix(0.88839406,0,0,0.88839406,-575.63272,0.64599306)">
	<path
   fill="#dce2e2"
   d="m 454.328,279.356 -2.115,-1.955 c -1.004,-1.004 -1.004,-2.632 0,-3.635 l 2.294,-2.294 c 1.004,-1.004 1.004,-2.632 0,-3.635 l -2.294,-2.294 c -1.004,-1.004 -1.004,-2.631 0,-3.635 l 2.294,-2.294 c 1.004,-1.004 1.004,-2.632 0,-3.635 l -2.294,-2.294 c -1.004,-1.004 -1.004,-2.631 0,-3.635 l 2.294,-2.294 c 1.004,-1.004 1.004,-2.632 0,-3.635 l -2.294,-2.294 c -1.004,-1.004 -1.004,-2.631 0,-3.635 l 2.294,-2.294 c 1.004,-1.004 1.004,-2.632 0,-3.635 l -2.294,-2.294 c -1.004,-1.004 -1.004,-2.631 0,-3.635 l 2.294,-2.294 c 1.004,-1.004 1.004,-2.632 0,-3.635 l -2.294,-2.294 c -1.004,-1.004 -1.004,-2.632 0,-3.635 l 2.294,-2.294 c 1.004,-1.004 1.004,-2.632 0,-3.635 l -2.294,-2.294 c -1.004,-1.004 -1.004,-2.632 0,-3.635 l 2.294,-2.294 c 1.004,-1.004 1.004,-1.501 0,-2.504 l -4.111,0.036 H 125.894 c -2.946,-0.964 -6.046,-1.489 -9.25,-1.489 -19.171,0 -34.712,18.425 -34.712,41.154 0,22.729 15.541,41.154 34.712,41.154 v 0.836 h 333.753"
   id="path17" />
</g><g
     id="Layer_8"
     transform="matrix(0.88839406,0,0,0.88839406,-575.63272,0.64599306)">
	<path
   fill="#0074a8"
   d="m 219.605,26.809 c -40.513,0 -73.355,32.842 -73.355,73.355 0,40.513 32.842,73.355 73.355,73.355 h 36.678 V 26.809 Z"
   id="path20" />
</g><g
     id="Layer_9"
     transform="matrix(0.88839406,0,0,0.88839406,-575.63272,0.64599306)">
	<path
   fill="#dce2e2"
   d="m 478.974,66.903 c 1.004,-1.004 1.004,-2.631 0,-3.635 l -2.294,-2.294 c -1.004,-1.004 -1.004,-2.632 0,-3.635 l 2.294,-2.294 c 1.004,-1.004 1.165,-3.743 0.162,-4.747 h -4.273 -251.809 c -27.54,0 -49.866,22.326 -49.866,49.866 0,27.54 22.326,49.866 49.866,49.866 h 251.809 4.122 c 1.004,-1.004 0.994,-2.754 -0.01,-3.758 l -2.294,-2.294 c -1.004,-1.004 -1.004,-2.631 0,-3.635 l 2.294,-2.294 c 1.004,-1.004 1.004,-2.632 0,-3.635 l -2.294,-2.294 c -1.004,-1.004 -1.004,-2.631 0,-3.635 l 2.294,-2.294 c 1.004,-1.004 1.004,-2.632 0,-3.635 l -2.294,-2.294 c -1.004,-1.004 -1.004,-2.631 0,-3.635 l 2.294,-2.294 c 1.004,-1.004 1.004,-2.632 0,-3.635 l -2.294,-2.294 c -1.004,-1.004 -1.004,-2.631 0,-3.635 l 2.294,-2.294 c 1.004,-1.004 1.004,-2.632 0,-3.635 l -2.294,-2.294 c -1.004,-1.004 -1.004,-2.631 0,-3.635 l 2.294,-2.294 c 1.004,-1.004 1.004,-2.632 0,-3.635 l -2.294,-2.294 c -1.004,-1.004 -1.004,-2.631 0,-3.635 l 2.294,-2.294 c 1.004,-1.004 1.004,-2.632 0,-3.635 l -2.294,-2.294 c -1.004,-1.004 -1.004,-2.632 0,-3.635 z"
   id="path23" />
</g><g
     id="Layer_10"
     transform="matrix(0.88839406,0,0,0.88839406,-575.63272,0.64599306)">
	<path
   fill="#ff473e"
   d="m 478.809,331.344 h 19.17 c 5.042,0 9.13,-4.088 9.13,-9.13 v -8.683 c 0,-5.042 -4.088,-9.13 -9.13,-9.13 H 192.695 c -0.792,0 -1.555,0.111 -2.288,0.301 -2.259,-0.182 -4.536,-0.301 -6.843,-0.301 -46.471,0 -84.143,37.672 -84.143,84.143 0,46.471 37.672,84.143 84.143,84.143 2.306,0 4.583,-0.119 6.843,-0.301 0.732,0.189 1.496,0.301 2.288,0.301 h 305.283 c 5.042,0 9.13,-4.088 9.13,-9.13 v -8.683 c 0,-5.042 -4.088,-9.13 -9.13,-9.13 h -19.17 c -5.042,0 -9.13,-4.088 -9.13,-9.13 v -96.139 c 10e-4,-5.043 4.089,-9.131 9.131,-9.131 z"
   id="path26" />
</g><g
     id="Layer_11"
     transform="matrix(0.88839406,0,0,0.88839406,-575.63272,0.64599306)">
	<path
   fill="#dce2e2"
   d="m 493.309,350.901 c 1.104,-1.104 1.104,-2.895 0,-3.999 l -2.523,-2.523 c -1.104,-1.104 -1.104,-2.895 0,-3.999 l 2.523,-2.523 c 1.104,-1.104 1.104,-2.895 0,-3.999 l -2.45,-2.513 h -2.073 -301.265 c -31.59,0 -57.199,25.609 -57.199,57.199 0,31.59 25.609,57.199 57.199,57.199 h 301.265 1 l 3.523,-3.523 c 1.104,-1.104 1.104,-2.895 0,-3.999 l -2.523,-2.523 c -1.104,-1.104 -1.104,-2.895 0,-3.999 l 2.523,-2.523 c 1.104,-1.104 1.104,-2.895 0,-4 l -2.523,-2.523 c -1.104,-1.104 -1.104,-2.895 0,-3.999 l 2.523,-2.523 c 1.104,-1.104 1.104,-2.895 0,-3.999 l -2.523,-2.523 c -1.104,-1.104 -1.104,-2.895 0,-4 l 2.523,-2.523 c 1.104,-1.104 1.104,-2.895 0,-3.999 l -2.523,-2.523 c -1.104,-1.104 -1.104,-2.895 0,-3.999 l 2.523,-2.523 c 1.104,-1.104 1.104,-2.895 0,-4 l -2.523,-2.523 c -1.104,-1.104 -1.104,-2.895 0,-3.999 l 2.523,-2.523 c 1.104,-1.104 1.104,-2.895 0,-3.999 l -2.523,-2.523 c -1.104,-1.104 -1.104,-2.895 0,-3.999 l 2.523,-2.523 c 1.104,-1.104 1.104,-2.895 0,-3.999 l -2.523,-2.523 c -1.104,-1.104 -1.104,-2.895 0,-3.999 z"
   id="path29" />
</g><g
     id="g1247"><path
       id="path856"
       d="m -576.02625,322.53452 c -7.953,0 -14.39844,6.4474 -14.39844,14.4004 v 142.55273 c 0,27.835 22.56344,50.40039 50.39844,50.40039 h 383.3086 c 27.836,0 50.39939,-22.56539 50.40039,-50.40039 V 336.93492 c 0,-7.953 -6.44544,-14.4004 -14.39844,-14.4004 h -133.17383 c 0,52.18201 -42.30142,94.48243 -94.48242,94.48243 -52.181,0 -94.48242,-42.30143 -94.48242,-94.48243 z"
       style="fill:#8e6049;fill-opacity:1" /><g
       id="Layer_4-7"
       transform="translate(-604.37163,17.887745)">
	<path
   fill="#68442a"
   d="m 13.946,446.317 v 25.875 c 0,21.985 17.823,39.808 39.808,39.808 h 404.493 c 21.985,0 39.808,-17.823 39.808,-39.808 v -25.875 z"
   id="path859" />
</g></g></g></svg>
